<svg width="53" height="16" fill="none" xmlns="http://www.w3.org/2000/svg"><path d="M48.27 15.5c-1.33 0-2.318-.176-2.963-.528-.627-.367-1.026-.806-1.197-1.318l.541-.191v1.797h-2.963V12h2.593c.17.32.408.591.712.815.323.207.684.375 1.083.503a4.52 4.52 0 0 0 1.225.168c.475 0 .836-.064 1.083-.192.247-.144.37-.32.37-.527a.513.513 0 0 0-.228-.432c-.152-.111-.456-.215-.911-.311l-2.422-.503c-1.083-.24-1.947-.6-2.593-1.079-.646-.479-.97-1.142-.97-1.988 0-.671.2-1.23.6-1.678.417-.463.959-.806 1.623-1.03a6.677 6.677 0 0 1 2.223-.36c1.14 0 2.004.176 2.593.528.589.351.96.774 1.111 1.27l-.513-.024V5.627h2.935v3.02H49.61a1.212 1.212 0 0 0-.484-.648 2.268 2.268 0 0 0-.827-.43 2.783 2.783 0 0 0-.968-.169c-.456 0-.817.072-1.083.216-.247.128-.37.312-.37.551 0 .16.075.296.227.407.171.096.466.192.884.288l2.422.503c1.12.224 1.994.575 2.621 1.054.646.48.969 1.159.969 2.037 0 .655-.209 1.214-.627 1.678-.418.447-.988.79-1.71 1.03-.702.224-1.5.335-2.393.335Z" fill="url(#a)"/><path d="M31.28 15.5c-1.025 0-1.918-.216-2.678-.647a4.574 4.574 0 0 1-1.71-1.797c-.398-.767-.598-1.637-.598-2.612 0-.99.2-1.86.599-2.612a4.41 4.41 0 0 1 1.71-1.773c.76-.447 1.652-.67 2.678-.67.779 0 1.53.143 2.25.43.723.288 1.34.735 1.853 1.343l-.484.143V3.64h-1.596V1.291h5.841v11.621h1.453v2.348h-5.356v-1.868l.142.335a4.645 4.645 0 0 1-1.852 1.342 6.03 6.03 0 0 1-2.251.431Zm1.483-2.755c.38 0 .769-.072 1.168-.216.418-.16.798-.415 1.14-.767l-.171 1.246v-4.96l.17 1.078a2.901 2.901 0 0 0-1.14-.742 3.131 3.131 0 0 0-1.167-.24c-.684 0-1.245.2-1.681.599-.438.4-.656.966-.656 1.701 0 .735.219 1.302.655 1.701.437.4.998.6 1.682.6Z" fill="url(#b)"/><path d="M18.152 15.26v-2.348h1.453V8H18.01V5.628h5.87v7.284h1.31v2.348h-7.038Zm3.59-10.735c-.76 0-1.367-.183-1.823-.55-.437-.368-.655-.855-.655-1.462s.218-1.095.655-1.462C20.375.684 20.983.5 21.742.5c.741 0 1.33.184 1.767.551.456.367.684.855.684 1.462s-.228 1.094-.684 1.461c-.437.368-1.026.551-1.767.551Z" fill="url(#c)"/><path d="M0 15.5v-2.478h1.44V4.478H0V2h7.251v2.478h-1.44v3.589l4.166-3.59h-1.08V2h7.123v2.478h-1.337l-5.117 4.4V7.58l5.605 5.442h1.338V15.5H9v-2.478h1.08L5.811 8.808v4.214h1.44V15.5H0Z" fill="url(#d)"/><defs><linearGradient id="a" x1="-47.822" y1="-4.209" x2="67.951" y2="33.361" gradientUnits="userSpaceOnUse"><stop offset=".359" stop-color="#FAC64C"/><stop offset="1" stop-color="#FF4F04"/></linearGradient><linearGradient id="b" x1="-46.321" y1="-4.208" x2="69.453" y2="33.362" gradientUnits="userSpaceOnUse"><stop offset=".359" stop-color="#FAC64C"/><stop offset="1" stop-color="#FF4F04"/></linearGradient><linearGradient id="c" x1="-44.831" y1="-4.209" x2="70.943" y2="33.362" gradientUnits="userSpaceOnUse"><stop offset=".359" stop-color="#FAC64C"/><stop offset="1" stop-color="#FF4F04"/></linearGradient><linearGradient id="d" x1="-38.666" y1="-3.314" x2="67.102" y2="28.738" gradientUnits="userSpaceOnUse"><stop offset=".359" stop-color="#FAC64C"/><stop offset="1" stop-color="#FF4F04"/></linearGradient></defs></svg>