<svg width="286" height="54" fill="none" xmlns="http://www.w3.org/2000/svg"><path d="M263.818 31.287c-1.424 0-2.681-.282-3.77-.846a10.8 10.8 0 0 1-2.932-2.36l1.633.712-.167 2.048h-7.917v-3.918h2.178V8.582h-2.178V4.663h8.378V15.97l-1.048-.267c.643-.92 1.495-1.662 2.556-2.226 1.061-.594 2.262-.89 3.602-.89 1.536 0 2.863.385 3.98 1.157 1.145.742 2.011 1.796 2.597 3.161.615 1.365.922 2.968.922 4.808 0 1.96-.335 3.651-1.005 5.076-.643 1.425-1.55 2.538-2.723 3.339-1.173.772-2.542 1.158-4.106 1.158Zm-2.178-4.898c1.089 0 1.955-.4 2.597-1.202.67-.801 1.006-1.885 1.006-3.25 0-1.454-.336-2.553-1.006-3.295-.67-.771-1.536-1.157-2.597-1.157-.67 0-1.313.178-1.927.534-.614.356-1.159.89-1.634 1.603l.964-2.27v9.527l-1.089-2.315a6.967 6.967 0 0 0 1.675 1.335c.615.327 1.285.49 2.011.49Zm-26.251 4.898c-1.703 0-3.058-.475-4.063-1.425-1.005-.95-1.508-2.211-1.508-3.784 0-1.336.307-2.405.921-3.206a5.295 5.295 0 0 1 2.472-1.78 9.957 9.957 0 0 1 3.268-.535c.949 0 1.829.089 2.639.267.81.178 1.48.4 2.01.668l-.963.222v-1.469c0-1.128-.279-1.959-.838-2.493-.531-.564-1.312-.846-2.346-.846-.782 0-1.62.119-2.513.356-.866.238-1.871.623-3.016 1.158l-1.383-3.785a19.815 19.815 0 0 1 4.189-1.513 17.059 17.059 0 0 1 4.231-.535c1.648 0 3.044.297 4.189.89 1.173.565 2.053 1.396 2.64 2.494.614 1.069.921 2.36.921 3.873v7.08h2.011v3.917h-7.122l-.837-2.76h1.508c-.922 1.069-1.899 1.87-2.933 2.404-1.033.534-2.192.802-3.477.802Zm2.137-3.429c.586 0 1.173-.148 1.759-.445.587-.297 1.145-.786 1.676-1.47l-.796 1.648v-4.318l.796.935a5.513 5.513 0 0 0-1.383-.58 5.9 5.9 0 0 0-1.675-.222c-.67 0-1.271.178-1.801.534-.503.327-.755.906-.755 1.737 0 .683.182 1.217.545 1.603.391.385.936.578 1.634.578Zm-32.156 2.983v-4.54h2.388V9.336h-2.388v-4.23h11.897v4.23h-2.388V26.3h6.619v-6.812h4.734v11.354H205.37Zm-36.767 0v-3.918h2.178V16.906h-2.136v-3.873h7.917l.126 2.137-1.55.668c1.145-1.01 2.318-1.796 3.519-2.36a8.402 8.402 0 0 1 3.77-.89c1.871 0 3.281.608 4.231 1.825.977 1.187 1.466 2.656 1.466 4.407v8.103h2.137v3.918h-10.138v-3.918h1.801v-7.079c0-.89-.195-1.573-.586-2.048-.391-.504-.95-.756-1.676-.756-.614 0-1.27.163-1.969.49a8.082 8.082 0 0 0-1.969 1.201l1.299-2.67v10.862h1.801v3.918h-10.221Zm22.998 0v-3.918h1.801v-7.079c0-.89-.209-1.573-.628-2.048-.391-.504-.935-.756-1.634-.756-.642 0-1.298.148-1.969.445a7.942 7.942 0 0 0-1.843 1.202l-.754-2.85c1.145-1.009 2.304-1.795 3.477-2.36a8.493 8.493 0 0 1 3.812-.89c1.816 0 3.226.594 4.231 1.781 1.006 1.158 1.508 2.627 1.508 4.408v8.147h2.137v3.918h-10.138Zm-39.347.446c-1.285 0-2.36-.282-3.226-.846a5.21 5.21 0 0 1-1.885-2.27c-.419-.95-.629-1.99-.629-3.117v-8.148h-2.094v-3.873h8.336v11.041c0 .86.182 1.543.545 2.048.391.475.949.712 1.675.712.699 0 1.383-.178 2.053-.534a7.032 7.032 0 0 0 1.927-1.469l-1.257 2.85V16.905h-1.843v-3.873h8.043v13.89h2.179v3.918h-7.876l-.209-2.315 1.55-.623c-1.09 1.039-2.235 1.87-3.436 2.493a8.57 8.57 0 0 1-3.853.89Zm-20.633-.445v-3.918h2.178V16.906h-2.178v-3.873h8.42v13.89h2.137v3.919h-10.557Zm4.818-21.104c-1.09 0-1.969-.341-2.64-1.024-.67-.682-1.005-1.573-1.005-2.671 0-1.128.335-2.018 1.005-2.671.671-.683 1.55-1.024 2.64-1.024 1.089 0 1.954.341 2.597 1.024.67.653 1.005 1.543 1.005 2.671.028 1.098-.293 1.989-.963 2.671-.671.683-1.55 1.024-2.639 1.024Zm-28.832 21.103v-3.918h2.179V16.906h-2.179v-3.873h7.96l.125 2.181-1.55.623c1.145-1.009 2.318-1.795 3.519-2.36a8.405 8.405 0 0 1 3.77-.89c1.816 0 3.226.594 4.231 1.781 1.006 1.158 1.508 2.627 1.508 4.408v8.147h2.137v3.918h-10.138v-3.918h1.76v-7.079c0-.89-.196-1.573-.587-2.048-.391-.504-.935-.756-1.633-.756-.671 0-1.341.163-2.011.49a8.409 8.409 0 0 0-1.969 1.246l1.298-2.716v10.863h1.802v3.918h-10.222Zm-10.694.49c-1.927 0-3.617-.37-5.07-1.113a8.164 8.164 0 0 1-3.35-3.206c-.81-1.424-1.215-3.116-1.215-5.075 0-1.87.39-3.502 1.173-4.897a8.647 8.647 0 0 1 3.225-3.295c1.397-.801 2.989-1.202 4.776-1.202 1.76 0 3.254.4 4.482 1.202 1.257.772 2.207 1.855 2.849 3.25.67 1.365 1.005 2.953 1.005 4.764v1.202H90.713l.042-2.805h8.294c0-.712-.112-1.306-.335-1.78-.195-.505-.503-.891-.921-1.158-.42-.267-.936-.4-1.55-.4-.699 0-1.285.192-1.76.578-.475.356-.838.89-1.09 1.603-.222.682-.334 1.498-.334 2.448 0 1.099.195 2.019.586 2.76a4.374 4.374 0 0 0 1.676 1.648c.698.356 1.508.534 2.43.534a7.623 7.623 0 0 0 2.848-.534 8.49 8.49 0 0 0 2.346-1.38l1.718 3.918c-.95.89-2.081 1.602-3.394 2.137-1.312.534-2.764.801-4.356.801Zm-27.047-.044c-2.737 0-5.153-.55-7.247-1.648-2.067-1.098-3.687-2.641-4.86-4.63C56.587 22.991 56 20.676 56 18.064c0-2.672.545-5.002 1.634-6.99 1.117-2.019 2.653-3.592 4.608-4.72 1.955-1.127 4.217-1.691 6.786-1.691 2.709 0 4.887.623 6.535 1.87 1.676 1.216 2.765 2.79 3.267 4.719l-1.717-1.113V5.108h4.734v9.216h-4.064c-.698-1.455-1.62-2.568-2.764-3.34-1.118-.771-2.528-1.157-4.232-1.157-1.508 0-2.82.327-3.937.98-1.09.623-1.941 1.543-2.556 2.76-.586 1.187-.88 2.656-.88 4.408 0 1.691.28 3.146.838 4.363.56 1.217 1.341 2.152 2.346 2.805 1.034.653 2.22.98 3.561.98.894 0 1.704-.12 2.43-.357a5.22 5.22 0 0 0 1.885-1.069 4.598 4.598 0 0 0 1.215-1.78c.307-.713.46-1.559.46-2.538l2.305 1.024h-6.535v-4.586h10.975v1.825c0 2.137-.321 4.007-.964 5.61-.642 1.573-1.564 2.88-2.764 3.918-1.173 1.039-2.556 1.825-4.147 2.36-1.565.504-3.282.757-5.153.757Z" fill="#fff"/><path d="M235.872 39.57c-.877 0-1.456-.452-1.456-1.093h.89c0 .273.213.473.566.473.339 0 .551-.2.551-.473h.891c0 .64-.565 1.092-1.442 1.092Zm-3.761 8.107v-7.352h1.145v6.154c.085-.157.424-.577.424-.577l4.695-5.577h1.23v7.352h-1.145v-6.165c-.085.158-.425.578-.425.578l-4.694 5.587h-1.23Zm-10.817 0v-7.352h1.145v6.154c.085-.157.424-.577.424-.577l4.695-5.577h1.23v7.352h-1.145v-6.165c-.085.158-.424.578-.424.578l-4.695 5.587h-1.23Zm-10.706-7.352h1.188v3.203h5.019v-3.203h1.188v7.352h-1.188v-3.35h-5.019v3.35h-1.188v-7.352Zm-11.38 7.352 3.959-7.352h1.216l3.959 7.352h-1.258l-1.131-2.164h-4.355l-1.132 2.164h-1.258Zm2.786-2.92h3.563l-1.513-2.898a4.438 4.438 0 0 1-.269-.557c-.056.147-.17.389-.268.557l-1.513 2.898Zm-12.418-4.432h1.188v3.203h5.02v-3.203h1.187v7.352h-1.187v-3.35h-5.02v3.35h-1.188v-7.352Zm-4.69 3.393c1.16.294 1.867.924 1.867 1.827 0 1.386-1.485 2.279-3.663 2.279-2.149 0-3.393-.882-3.704-2.027l1.103-.294c.155.798 1.103 1.533 2.601 1.533 1.457 0 2.475-.525 2.475-1.47 0-.924-1.032-1.376-2.46-1.376h-.948v-.777h.962c1.286 0 2.05-.504 2.05-1.281 0-.735-.764-1.166-2.022-1.166-1.414 0-2.135.515-2.361 1.24l-1.089-.18c.297-1.039 1.386-1.848 3.45-1.848 2.093 0 3.167.83 3.167 1.89 0 .788-.523 1.356-1.428 1.65Zm-17.56-3.393h3.888v7.352h-1.188v-3.109h-2.29l-2.489 3.109h-1.287l2.546-3.193c-1.57-.23-2.362-.987-2.362-2.069 0-1.197 1.174-2.09 3.182-2.09Zm2.7 3.477v-2.71h-2.559c-1.357 0-2.135.441-2.135 1.355 0 .913.778 1.355 2.135 1.355h2.559Zm-16.398 3.875v-7.352h1.146v6.154c.085-.157.424-.577.424-.577l4.694-5.577h1.231v7.352h-1.146v-6.165c-.085.158-.424.578-.424.578l-4.694 5.587h-1.231Zm-13.025-7.352h1.3l3.549 6.522 3.564-6.522h1.301v7.352h-1.16v-5.66c-.085.188-.495 1.039-.495 1.039l-2.587 4.62h-1.231l-2.587-4.61s-.424-.86-.509-1.05v5.66h-1.145v-7.35Zm-9.215 0h6.179v.778h-4.992v2.383h4.596v.778h-4.596V46.9h5.034v.777h-6.221v-7.352ZM119.542 49v-2.11h.791c.637-.883.849-1.608.934-2.889l.268-3.676h5.939v6.564h1.216V49h-1.117v-1.323h-6.914V49h-1.117Zm2.021-2.11h4.723v-5.787h-3.662l-.212 2.982c-.099 1.292-.283 1.974-.849 2.804Zm-13.394.787 3.96-7.352h1.216l3.959 7.352h-1.259l-1.131-2.164h-4.355l-1.131 2.164h-1.259Zm2.786-2.92h3.563l-1.513-2.898a4.29 4.29 0 0 1-.268-.557c-.057.147-.17.389-.269.557l-1.513 2.898Zm-9.256-.861 4.595 3.78h-1.527l-3.323-2.74-.876-.725v3.466H99.38v-7.352h1.188v3.319c.24-.21.579-.483.919-.767l3.082-2.552h1.556l-4.426 3.571ZM88 47.677l3.96-7.352h1.215l3.96 7.352h-1.26l-1.13-2.164H90.39l-1.132 2.164H88Zm2.785-2.92h3.564l-1.513-2.898a4.38 4.38 0 0 1-.269-.557c-.056.147-.17.389-.268.557l-1.514 2.898Z" fill="#B4B4B4"/><g clip-path="url(#a)"><path d="M35.375 7.545c.525-1.183 1.975-2.12 1.975-2.12-1.775-.469-3.525-.173-4.55.148-.6-.641-2.95-6.46-12.425-5.474 0 0 2.4 1.282 3.85 3.649 0 0-.6-.05-1-.025-10.25.247-19 8.976-19.1 19.085-.075 6.806 3.45 12.822 8.8 16.299a3.354 3.354 0 0 1 1.525 2.81v.617c0 1.603 1.325 2.91 2.95 2.91h12.575c1.625 0 2.95-1.307 2.95-2.91v-.591c0-1.11.55-2.17 1.5-2.787 5.325-3.452 8.825-9.394 8.825-16.126 0-6.337-3.1-11.959-7.875-15.485Z" fill="url(#b)"/><path d="M24.4 38.54c-8.7 0-14.375-1.751-18-6.51a19.62 19.62 0 0 0 6.525 7.077 3.354 3.354 0 0 1 1.525 2.81v.617c0 1.603 1.325 2.91 2.95 2.91h12.575c1.625 0 2.95-1.307 2.95-2.91v-.591c0-1.11.55-2.17 1.5-2.787 2.875-1.874 5.225-4.463 6.75-7.496-3.4 4.735-10.55 6.88-16.775 6.88Z" fill="url(#c)"/><path d="M32.8 26.334c1.795 0 3.25-1.932 3.25-4.315 0-2.383-1.455-4.315-3.25-4.315s-3.25 1.932-3.25 4.315c0 2.383 1.455 4.315 3.25 4.315Z" fill="#00042D"/><path d="M31.9 20.64c.648 0 1.175-.52 1.175-1.16 0-.64-.527-1.16-1.175-1.16-.65 0-1.175.52-1.175 1.16 0 .64.526 1.16 1.175 1.16Z" fill="#fff"/><path d="M14.475 26.334c1.795 0 3.25-1.932 3.25-4.315 0-2.383-1.455-4.315-3.25-4.315s-3.25 1.932-3.25 4.315c0 2.383 1.455 4.315 3.25 4.315Z" fill="#00042D"/><path d="M13.55 20.64c.649 0 1.175-.52 1.175-1.16 0-.64-.526-1.16-1.175-1.16s-1.175.52-1.175 1.16c0 .64.526 1.16 1.175 1.16Z" fill="#fff"/><path d="M30.575 48.872H16.55c-.95 0-1.725-.764-1.725-1.702 0-.937.775-1.702 1.725-1.702h14.025c.95 0 1.725.765 1.725 1.702.025.938-.75 1.702-1.725 1.702Z" fill="url(#d)"/><path d="M24.325 54h-1.3a3.04 3.04 0 0 1-2.875-2.022l-1.1-3.107h9.25l-1.1 3.107C26.8 53.186 25.625 54 24.325 54Z" fill="url(#e)"/><path d="m27.185 52.05 1.11-3.184h-9.237l1.114 3.183h7.013Z" fill="url(#f)" fill-opacity=".82"/><path d="M35.9 9.518a11.1 11.1 0 0 0-9.6 5.474 3.462 3.462 0 0 0-2.825-1.455c-1.15 0-2.175.542-2.8 1.405A11.153 11.153 0 0 0 11.1 9.518C4.975 9.518 0 14.425 0 20.466c0 6.04 4.975 10.948 11.1 10.948s11.075-4.907 11.075-10.948c0-1.332-.25-2.639-.7-3.822.15-.937.975-1.652 1.975-1.652 1.05 0 1.9.789 2 1.775a10.664 10.664 0 0 0-.65 3.699c0 6.04 4.975 10.948 11.1 10.948S47 26.507 47 20.466 42.025 9.518 35.9 9.518Zm-24.8 20.44c-5.325 0-9.625-4.24-9.625-9.492 0-5.252 4.3-9.493 9.625-9.493s9.625 4.24 9.625 9.493c0 5.252-4.325 9.493-9.625 9.493Zm24.8 0c-5.325 0-9.625-4.24-9.625-9.492 0-5.252 4.3-9.493 9.625-9.493s9.625 4.24 9.625 9.493c0 5.252-4.3 9.493-9.625 9.493Z" fill="#fff"/><path d="M23.925 34.52h-.35a4.698 4.698 0 0 1-3.675-2.268.975.975 0 0 1 .375-1.356 1.003 1.003 0 0 1 1.375.37c.425.715 1.25 1.233 2.075 1.282.775.05 1.8-.247 2.3-1.233.25-.493.85-.69 1.35-.444.5.247.7.839.45 1.332-.725 1.405-2.225 2.318-3.9 2.318Z" fill="#00042D"/></g><defs><linearGradient id="b" x1="11.132" y1="56.081" x2="30.454" y2="3.947" gradientUnits="userSpaceOnUse"><stop stop-color="#D26900"/><stop offset=".092" stop-color="#CB6500"/><stop offset=".284" stop-color="#D66B00"/><stop offset=".485" stop-color="#FF8D1C"/><stop offset=".622" stop-color="#FDB50B"/><stop offset=".823" stop-color="#FFC94A"/><stop offset=".985" stop-color="#FFE19A"/><stop offset="1" stop-color="#FFE19A"/></linearGradient><linearGradient id="c" x1="23.795" y1="27.367" x2="23.795" y2="55.221" gradientUnits="userSpaceOnUse"><stop stop-color="#250B47" stop-opacity="0"/><stop offset=".276" stop-color="#250B47" stop-opacity=".276"/><stop offset=".616" stop-color="#250B47" stop-opacity=".616"/><stop offset=".867" stop-color="#250B47" stop-opacity=".84"/><stop offset="1" stop-color="#250B47"/></linearGradient><linearGradient id="d" x1="19.402" y1="58.102" x2="37.137" y2="10.264" gradientUnits="userSpaceOnUse"><stop stop-color="#250B47"/><stop offset=".092" stop-color="#250B47"/><stop offset=".284" stop-color="#260E46"/><stop offset=".549" stop-color="#361365"/><stop offset=".622" stop-color="#361365"/><stop offset=".771" stop-color="#511E96"/><stop offset=".985" stop-color="#511E96"/><stop offset="1" stop-color="#511E96"/></linearGradient><linearGradient id="e" x1="21.065" y1="55.879" x2="39.693" y2="5.618" gradientUnits="userSpaceOnUse"><stop stop-color="#250B47"/><stop offset=".092" stop-color="#250B47"/><stop offset=".284" stop-color="#2D0F55"/><stop offset=".549" stop-color="#4E2189"/><stop offset=".622" stop-color="#622BA9"/><stop offset=".771" stop-color="#622BA9"/><stop offset=".985" stop-color="#622BA9"/><stop offset="1" stop-color="#622BA9"/></linearGradient><linearGradient id="f" x1="23.328" y1="50.88" x2="23.316" y2="48.098" gradientUnits="userSpaceOnUse"><stop stop-color="#250B47"/><stop offset=".276" stop-color="#47138B"/><stop offset=".545" stop-color="#352270"/><stop offset=".849" stop-color="#2D0D57"/><stop offset="1" stop-color="#350C6A"/></linearGradient><clipPath id="a"><path fill="#fff" d="M0 0h47v54H0z"/></clipPath></defs></svg>