<svg width="286" height="54" fill="none" xmlns="http://www.w3.org/2000/svg"><path d="M277.218 33.287c-1.514 0-2.85-.282-4.007-.846a11.374 11.374 0 0 1-3.117-2.36l1.736.713-.178 2.048h-8.414v-3.918h2.315V10.581h-2.315V6.663h8.904v11.309l-1.113-.268c.683-.92 1.588-1.662 2.716-2.226 1.128-.593 2.404-.89 3.829-.89 1.632 0 3.042.386 4.229 1.158 1.217.742 2.137 1.795 2.761 3.16.653 1.366.979 2.969.979 4.809 0 1.959-.356 3.65-1.068 5.075-.683 1.425-1.648 2.538-2.894 3.34-1.247.771-2.701 1.157-4.363 1.157Zm-2.316-4.897c1.158 0 2.078-.401 2.761-1.202.712-.802 1.068-1.885 1.068-3.25 0-1.455-.356-2.553-1.068-3.295-.713-.772-1.633-1.158-2.761-1.158a4.22 4.22 0 0 0-2.048.535c-.652.356-1.231.89-1.736 1.602l1.024-2.27v9.527l-1.157-2.315a7.362 7.362 0 0 0 1.78 1.336 4.72 4.72 0 0 0 2.137.49Zm-27.899 4.897c-1.811 0-3.25-.475-4.319-1.425-1.068-.95-1.602-2.21-1.602-3.784 0-1.336.326-2.404.979-3.206.683-.83 1.558-1.424 2.627-1.78a11.188 11.188 0 0 1 3.472-.535c1.01 0 1.945.09 2.805.267.861.178 1.573.401 2.137.668l-1.024.223v-1.47c0-1.127-.296-1.958-.89-2.493-.564-.563-1.395-.845-2.493-.845-.831 0-1.722.118-2.672.356-.92.237-1.988.623-3.205 1.157l-1.469-3.784a21.905 21.905 0 0 1 4.452-1.514 19.202 19.202 0 0 1 4.497-.534c1.751 0 3.235.297 4.452.89 1.246.564 2.181 1.395 2.805 2.493.653 1.07.979 2.36.979 3.874v7.079h2.137v3.918h-7.569l-.89-2.76h1.603c-.98 1.068-2.019 1.87-3.117 2.404-1.098.534-2.33.801-3.695.801Zm2.271-3.428c.623 0 1.246-.149 1.869-.445.624-.297 1.217-.787 1.781-1.47l-.846 1.648v-4.319l.846.935a6.053 6.053 0 0 0-1.469-.579 6.647 6.647 0 0 0-1.781-.222 3.51 3.51 0 0 0-1.914.534c-.534.326-.802.905-.802 1.736 0 .683.193 1.217.579 1.603.416.386.995.579 1.737.579Zm-34.176 2.983v-4.541h2.538V11.338h-2.538v-4.23h12.644v4.23h-2.537v16.963h7.034v-6.812h5.031v11.353h-22.172Zm-39.076 0v-3.918h2.316V18.907h-2.271v-3.874h8.415l.133 2.137-1.647.668c1.217-1.01 2.463-1.796 3.74-2.36a9.392 9.392 0 0 1 4.007-.89c1.988 0 3.487.608 4.496 1.825 1.039 1.188 1.559 2.657 1.559 4.408v8.103h2.27v3.918h-10.774v-3.918h1.914v-7.08c0-.89-.207-1.572-.623-2.047-.415-.505-1.009-.757-1.781-.757-.653 0-1.35.163-2.092.49a8.69 8.69 0 0 0-2.093 1.202l1.38-2.671v10.863h1.915v3.918h-10.864Zm24.443 0v-3.918h1.914v-7.08c0-.89-.222-1.572-.667-2.047-.416-.505-.995-.757-1.737-.757-.683 0-1.38.149-2.092.445a8.482 8.482 0 0 0-1.959 1.202l-.802-2.849c1.217-1.01 2.449-1.796 3.696-2.36a9.489 9.489 0 0 1 4.051-.89c1.929 0 3.428.594 4.497 1.78 1.068 1.158 1.603 2.628 1.603 4.408v8.148h2.27v3.918h-10.774Zm-41.819.445c-1.365 0-2.508-.282-3.428-.846a5.295 5.295 0 0 1-2.004-2.27c-.445-.95-.668-1.989-.668-3.117v-8.147h-2.226v-3.874h8.86v11.042c0 .86.193 1.543.579 2.048.415.474 1.009.712 1.781.712.742 0 1.469-.178 2.181-.534a7.445 7.445 0 0 0 2.048-1.47l-1.335 2.85V18.907h-1.959v-3.874h8.548v13.891h2.315v3.918h-8.37l-.223-2.315 1.648-.623c-1.158 1.038-2.375 1.87-3.651 2.493a9.594 9.594 0 0 1-4.096.89Zm-21.928-.445v-3.918h2.315V18.906h-2.315v-3.873h8.949v13.89h2.271v3.919h-11.22Zm5.12-21.104c-1.157 0-2.092-.341-2.805-1.024-.712-.682-1.068-1.573-1.068-2.671 0-1.128.356-2.018 1.068-2.671.713-.683 1.648-1.024 2.805-1.024 1.158 0 2.078.341 2.761 1.024.712.653 1.068 1.543 1.068 2.671.03 1.098-.312 1.989-1.024 2.671-.712.683-1.647 1.024-2.805 1.024Zm-30.642 21.104v-3.918h2.315V18.907h-2.315v-3.874h8.459l.134 2.182-1.647.623c1.217-1.01 2.463-1.796 3.74-2.36a9.388 9.388 0 0 1 4.006-.89c1.93 0 3.429.594 4.497 1.78 1.069 1.158 1.603 2.628 1.603 4.408v8.148h2.271v3.918h-10.775v-3.918h1.87v-7.08c0-.89-.208-1.572-.623-2.047-.416-.505-.994-.757-1.736-.757a5.08 5.08 0 0 0-2.137.49 9.053 9.053 0 0 0-2.093 1.246l1.38-2.715v10.863h1.915v3.918h-10.864Zm-11.366.489c-2.048 0-3.844-.37-5.387-1.113-1.514-.742-2.701-1.81-3.562-3.206-.86-1.424-1.291-3.116-1.291-5.075 0-1.87.415-3.502 1.246-4.897a8.927 8.927 0 0 1 3.429-3.295c1.484-.801 3.175-1.202 5.075-1.202 1.87 0 3.458.4 4.764 1.202a7.448 7.448 0 0 1 3.027 3.25c.713 1.365 1.069 2.953 1.069 4.764v1.202H93.24l.045-2.805h8.815c0-.712-.118-1.306-.356-1.78a2.349 2.349 0 0 0-.979-1.158c-.445-.267-.995-.4-1.647-.4-.742 0-1.366.192-1.87.578-.505.356-.89.89-1.158 1.603-.237.682-.356 1.498-.356 2.448 0 1.099.208 2.019.623 2.76a4.53 4.53 0 0 0 1.781 1.648c.742.356 1.603.534 2.582.534a8.554 8.554 0 0 0 3.028-.534 9.162 9.162 0 0 0 2.493-1.38l1.825 3.918c-1.009.89-2.211 1.602-3.606 2.137-1.395.534-2.938.801-4.63.801Zm-28.746-.044c-2.908 0-5.476-.549-7.702-1.647-2.196-1.098-3.918-2.642-5.164-4.63-1.247-2.019-1.87-4.334-1.87-6.946 0-2.671.578-5.001 1.736-6.99 1.187-2.018 2.82-3.591 4.897-4.72 2.078-1.127 4.482-1.69 7.213-1.69 2.879 0 5.194.622 6.945 1.869 1.781 1.217 2.939 2.79 3.473 4.72l-1.825-1.114V7.11h5.03v9.215H79.5c-.742-1.454-1.721-2.567-2.938-3.339-1.188-.771-2.687-1.157-4.497-1.157-1.603 0-2.998.326-4.185.98-1.158.622-2.063 1.543-2.716 2.76-.623 1.187-.935 2.656-.935 4.407 0 1.692.297 3.146.89 4.363.594 1.217 1.425 2.152 2.494 2.805 1.098.653 2.36.98 3.784.98.95 0 1.81-.12 2.582-.357a5.647 5.647 0 0 0 2.004-1.068 4.6 4.6 0 0 0 1.29-1.781c.327-.712.49-1.558.49-2.538l2.45 1.024h-6.946v-4.585H84.93v1.825c0 2.137-.342 4.007-1.024 5.61-.683 1.573-1.662 2.879-2.939 3.918-1.246 1.038-2.716 1.825-4.407 2.36-1.663.504-3.488.756-5.477.756Z" fill="#1F222E"/><path d="M252.836 41.465c-.983 0-1.633-.408-1.633-.988h.999c0 .247.238.428.634.428.381 0 .619-.18.619-.428h.999c0 .58-.634.988-1.618.988Zm-4.219 7.329v-6.646h1.285v5.563c.095-.142.476-.522.476-.522l5.266-5.04h1.38v6.645h-1.285V43.22c-.095.143-.476.522-.476.522l-5.266 5.05h-1.38Zm-12.134 0v-6.646h1.285v5.563c.095-.142.476-.522.476-.522l5.266-5.04h1.38v6.645h-1.285V43.22c-.095.143-.476.522-.476.522l-5.266 5.05h-1.38Zm-12.009-6.646h1.332v2.896h5.631v-2.896h1.332v6.646h-1.332v-3.029h-5.631v3.029h-1.332v-6.646Zm-12.766 6.646 4.441-6.646h1.364l4.442 6.646h-1.412l-1.269-1.956h-4.885l-1.269 1.956h-1.412Zm3.125-2.64h3.997l-1.697-2.62a3.757 3.757 0 0 1-.302-.503c-.063.133-.19.352-.301.504l-1.697 2.62Zm-13.93-4.006h1.332v2.896h5.631v-2.896h1.333v6.646h-1.333v-3.029h-5.631v3.029h-1.332v-6.646Zm-5.261 3.067c1.301.266 2.094.835 2.094 1.652 0 1.253-1.666 2.06-4.109 2.06-2.411 0-3.806-.798-4.155-1.833l1.237-.265c.174.721 1.237 1.386 2.918 1.386 1.634 0 2.776-.475 2.776-1.33 0-.835-1.158-1.243-2.76-1.243h-1.062v-.702h1.078c1.444 0 2.3-.456 2.3-1.159 0-.664-.856-1.053-2.268-1.053-1.586 0-2.395.465-2.649 1.12l-1.221-.162c.333-.94 1.554-1.67 3.87-1.67 2.347 0 3.553.75 3.553 1.708 0 .712-.587 1.225-1.602 1.49Zm-19.699-3.067h4.362v6.646h-1.332v-2.81h-2.57l-2.792 2.81h-1.443l2.855-2.886c-1.761-.21-2.649-.893-2.649-1.87 0-1.083 1.317-1.89 3.569-1.89Zm3.03 3.143v-2.45h-2.871c-1.523 0-2.395.4-2.395 1.225 0 .826.872 1.225 2.395 1.225h2.871Zm-18.396 3.503v-6.646h1.285v5.563c.095-.142.476-.522.476-.522l5.266-5.04h1.38v6.645h-1.285V43.22c-.095.143-.476.522-.476.522l-5.266 5.05h-1.38Zm-14.612-6.646h1.46l3.981 5.896 3.997-5.896h1.459v6.646h-1.3v-5.117c-.095.17-.555.94-.555.94l-2.903 4.177h-1.38l-2.903-4.168s-.476-.778-.571-.95v5.118h-1.285v-6.646Zm-10.337 0h6.932v.703h-5.6v2.155h5.155v.702h-5.155v2.383h5.647v.703h-6.979v-6.646Zm-13.289 7.842v-1.908h.888c.714-.798.952-1.453 1.047-2.61l.301-3.324h6.662v5.934h1.364v1.908h-1.253v-1.196h-7.756v1.196h-1.253Zm2.268-1.908h5.298V42.85h-4.108l-.238 2.696c-.111 1.168-.317 1.785-.952 2.535Zm-15.025.712 4.441-6.646h1.364l4.442 6.646h-1.412l-1.269-1.956h-4.885l-1.269 1.956h-1.412Zm3.125-2.64h3.997l-1.697-2.62a3.757 3.757 0 0 1-.302-.503c-.063.133-.19.352-.301.504l-1.697 2.62Zm-10.384-.778 5.156 3.418h-1.714l-3.727-2.478-.983-.655v3.133h-1.333v-6.646h1.333v3c.269-.19.65-.436 1.031-.693l3.457-2.307h1.745l-4.965 3.228Zm-15.366 3.418 4.44-6.646h1.365l4.441 6.646h-1.412l-1.268-1.956h-4.886l-1.269 1.956h-1.411Zm3.124-2.64h3.998l-1.698-2.62a3.677 3.677 0 0 1-.301-.503 3.66 3.66 0 0 1-.302.504l-1.697 2.62Z" fill="#B4B4B4"/><g clip-path="url(#a)"><path d="M34.364 6.846c.48-1.074 1.807-1.924 1.807-1.924-1.624-.425-3.225-.157-4.162.134-.55-.581-2.7-5.862-11.368-4.967 0 0 2.196 1.164 3.522 3.312 0 0-.549-.045-.915-.023-9.377.224-17.382 8.145-17.474 17.318-.069 6.175 3.156 11.635 8.051 14.79a3.037 3.037 0 0 1 1.395 2.55v.56c0 1.454 1.213 2.64 2.7 2.64h11.504c1.487 0 2.699-1.186 2.699-2.64v-.537c0-1.007.503-1.97 1.372-2.529 4.872-3.132 8.074-8.524 8.074-14.633 0-5.75-2.836-10.851-7.205-14.05Z" fill="url(#b)"/><path d="M24.323 34.971c-7.959 0-13.151-1.589-16.468-5.907a17.853 17.853 0 0 0 5.97 6.422 3.037 3.037 0 0 1 1.395 2.55v.56c0 1.454 1.213 2.64 2.7 2.64h11.504c1.487 0 2.699-1.186 2.699-2.64v-.537c0-1.007.503-1.97 1.372-2.529 2.63-1.7 4.78-4.05 6.176-6.802-3.11 4.296-9.652 6.243-15.348 6.243Z" fill="url(#c)"/><path d="M32.009 23.895c1.642 0 2.973-1.753 2.973-3.915 0-2.163-1.331-3.916-2.973-3.916-1.643 0-2.974 1.753-2.974 3.916 0 2.162 1.331 3.915 2.974 3.915Z" fill="#00042D"/><path d="M31.185 18.728c.594 0 1.075-.471 1.075-1.052 0-.581-.48-1.052-1.075-1.052-.593 0-1.075.471-1.075 1.052 0 .58.482 1.052 1.075 1.052Z" fill="#fff"/><path d="M15.243 23.895c1.642 0 2.973-1.753 2.973-3.915 0-2.163-1.33-3.916-2.973-3.916-1.642 0-2.973 1.753-2.973 3.916 0 2.162 1.33 3.915 2.973 3.915Z" fill="#00042D"/><path d="M14.397 18.728c.594 0 1.075-.471 1.075-1.052 0-.581-.481-1.052-1.075-1.052s-1.075.471-1.075 1.052c0 .58.481 1.052 1.075 1.052Z" fill="#fff"/><path d="M29.973 44.346H17.142c-.87 0-1.579-.693-1.579-1.544 0-.85.71-1.544 1.579-1.544h12.831c.87 0 1.578.694 1.578 1.544.023.85-.686 1.544-1.578 1.544Z" fill="url(#d)"/><path d="M24.255 49h-1.19a2.78 2.78 0 0 1-2.63-1.835l-1.006-2.82h8.463l-1.007 2.82C26.52 48.26 25.445 49 24.255 49Z" fill="url(#e)"/><path d="m26.871 47.23 1.017-2.89h-8.453l1.02 2.89h6.416Z" fill="url(#f)" fill-opacity=".82"/><path d="M34.845 8.636c-3.751 0-7.022 1.991-8.783 4.967a3.175 3.175 0 0 0-2.585-1.32c-1.052 0-1.99.492-2.562 1.275a10.22 10.22 0 0 0-8.76-4.922C6.552 8.636 2 13.088 2 18.57c0 5.482 4.552 9.934 10.155 9.934 5.604 0 10.133-4.452 10.133-9.934a9.737 9.737 0 0 0-.64-3.468c.137-.85.891-1.5 1.806-1.5.96 0 1.739.717 1.83 1.612a9.606 9.606 0 0 0-.595 3.356c0 5.482 4.552 9.934 10.156 9.934C40.448 28.504 45 24.052 45 18.57c0-5.482-4.552-9.934-10.155-9.934Zm-22.69 18.548c-4.871 0-8.806-3.848-8.806-8.614 0-4.766 3.935-8.614 8.806-8.614 4.872 0 8.806 3.848 8.806 8.614 0 4.766-3.957 8.614-8.806 8.614Zm22.69 0c-4.872 0-8.806-3.848-8.806-8.614 0-4.766 3.934-8.614 8.806-8.614 4.872 0 8.806 3.848 8.806 8.614 0 4.766-3.934 8.614-8.806 8.614Z" fill="#1F222E"/><path d="M23.889 31.324h-.32c-1.372-.09-2.676-.895-3.362-2.059a.881.881 0 0 1 .343-1.23c.434-.246 1.006-.112 1.258.335.389.65 1.143 1.12 1.898 1.164.71.045 1.647-.224 2.104-1.119a.926.926 0 0 1 1.235-.402c.458.223.64.76.412 1.208-.663 1.275-2.035 2.103-3.568 2.103Z" fill="#00042D"/></g><defs><linearGradient id="b" x1="12.185" y1="50.888" x2="29.609" y2="3.488" gradientUnits="userSpaceOnUse"><stop stop-color="#D26900"/><stop offset=".092" stop-color="#CB6500"/><stop offset=".284" stop-color="#D66B00"/><stop offset=".485" stop-color="#FF8D1C"/><stop offset=".622" stop-color="#FDB50B"/><stop offset=".823" stop-color="#FFC94A"/><stop offset=".985" stop-color="#FFE19A"/><stop offset="1" stop-color="#FFE19A"/></linearGradient><linearGradient id="c" x1="23.77" y1="24.833" x2="23.77" y2="50.108" gradientUnits="userSpaceOnUse"><stop stop-color="#250B47" stop-opacity="0"/><stop offset=".276" stop-color="#250B47" stop-opacity=".276"/><stop offset=".616" stop-color="#250B47" stop-opacity=".616"/><stop offset=".867" stop-color="#250B47" stop-opacity=".84"/><stop offset="1" stop-color="#250B47"/></linearGradient><linearGradient id="d" x1="19.752" y1="52.721" x2="35.744" y2="9.227" gradientUnits="userSpaceOnUse"><stop stop-color="#250B47"/><stop offset=".092" stop-color="#250B47"/><stop offset=".284" stop-color="#260E46"/><stop offset=".549" stop-color="#361365"/><stop offset=".622" stop-color="#361365"/><stop offset=".771" stop-color="#511E96"/><stop offset=".985" stop-color="#511E96"/><stop offset="1" stop-color="#511E96"/></linearGradient><linearGradient id="e" x1="21.272" y1="50.705" x2="38.07" y2="5.008" gradientUnits="userSpaceOnUse"><stop stop-color="#250B47"/><stop offset=".092" stop-color="#250B47"/><stop offset=".284" stop-color="#2D0F55"/><stop offset=".549" stop-color="#4E2189"/><stop offset=".622" stop-color="#622BA9"/><stop offset=".771" stop-color="#622BA9"/><stop offset=".985" stop-color="#622BA9"/><stop offset="1" stop-color="#622BA9"/></linearGradient><linearGradient id="f" x1="23.342" y1="46.169" x2="23.331" y2="43.644" gradientUnits="userSpaceOnUse"><stop stop-color="#250B47"/><stop offset=".276" stop-color="#47138B"/><stop offset=".545" stop-color="#352270"/><stop offset=".849" stop-color="#2D0D57"/><stop offset="1" stop-color="#350C6A"/></linearGradient><clipPath id="a"><path fill="#fff" transform="translate(2)" d="M0 0h43v49H0z"/></clipPath></defs></svg>