<svg width="24" height="24" viewBox="0 0 24 24" fill="none" xmlns="http://www.w3.org/2000/svg">
<path d="M2.5 6.23438L12 10.7344L21.5 6.23438M12 22.7534V10.9934M12.89 1.44331L20.89 5.44331C21.2233 5.60889 21.5037 5.86414 21.6998 6.18036C21.8959 6.49658 21.9999 6.86123 22 7.23331V16.7633C21.9999 17.1354 21.8959 17.5001 21.6998 17.8163C21.5037 18.1325 21.2233 18.3877 20.89 18.5533L12.89 22.5533C12.6122 22.6924 12.3058 22.7647 11.995 22.7647C11.6843 22.7647 11.3779 22.6924 11.1 22.5533L3.10005 18.5533C2.76718 18.3856 2.4878 18.1282 2.29344 17.8101C2.09907 17.4921 1.99745 17.126 2.00005 16.7533V7.23331C2.00025 6.86123 2.10424 6.49658 2.30033 6.18036C2.49642 5.86414 2.77684 5.60889 3.11005 5.44331L11.11 1.44331C11.3866 1.30589 11.6912 1.23437 12 1.23438C12.3089 1.23437 12.6135 1.30589 12.89 1.44331Z" stroke="#9EA4BE" stroke-linecap="round" stroke-linejoin="round"/>
</svg>
